<svg xmlns="http://www.w3.org/2000/svg" width="1800" height="1100" viewBox="0 0 1800 1100" font-family="monospace">
<rect width="100%" height="100%" fill="#0b2a4a"/>
<defs><pattern id="g" width="33" height="33" patternUnits="userSpaceOnUse"><path d="M33 0H0V33" fill="none" stroke="#1d4b78" stroke-width="1"/></pattern></defs>
<rect width="100%" height="100%" fill="url(#g)"/>
<g stroke="#cfe6ff" fill="none" stroke-width="1.6">
<line x1="90.0" y1="288.0" x2="1304.4" y2="288.0" stroke="#7fb0e0" stroke-width="1" stroke-dasharray="8 6"/>
<line x1="90.0" y1="552.0" x2="1304.4" y2="552.0" stroke="#7fb0e0" stroke-width="1" stroke-dasharray="8 6"/>
<circle cx="420.0" cy="420.0" r="59.4" stroke="#cfe6ff"/>
<circle cx="420.0" cy="420.0" r="76.6" stroke="#9fd0ff"/>
<line x1="340.8" y1="501.2" x2="340.8" y2="338.8" stroke="#cfe6ff" stroke-width="2.4" />
<line x1="492.6" y1="501.2" x2="492.6" y2="338.8" stroke="#cfe6ff" stroke-width="2.4" />
<line x1="281.4" y1="339.5" x2="281.4" y2="315.7" stroke="#cfe6ff" stroke-width="1" />
<line x1="290.8" y1="339.5" x2="290.8" y2="315.7" stroke="#cfe6ff" stroke-width="1" />
<line x1="300.1" y1="339.5" x2="300.1" y2="315.7" stroke="#cfe6ff" stroke-width="1" />
<line x1="309.5" y1="339.5" x2="309.5" y2="315.7" stroke="#cfe6ff" stroke-width="1" />
<line x1="318.9" y1="339.5" x2="318.9" y2="315.7" stroke="#cfe6ff" stroke-width="1" />
<line x1="328.3" y1="339.5" x2="328.3" y2="315.7" stroke="#cfe6ff" stroke-width="1" />
<line x1="337.6" y1="339.5" x2="337.6" y2="315.7" stroke="#cfe6ff" stroke-width="1" />
<line x1="347.0" y1="339.5" x2="347.0" y2="315.7" stroke="#cfe6ff" stroke-width="1" />
<line x1="356.4" y1="339.5" x2="356.4" y2="315.7" stroke="#cfe6ff" stroke-width="1" />
<line x1="365.7" y1="339.5" x2="365.7" y2="315.7" stroke="#cfe6ff" stroke-width="1" />
<line x1="375.1" y1="339.5" x2="375.1" y2="315.7" stroke="#cfe6ff" stroke-width="1" />
<line x1="384.5" y1="339.5" x2="384.5" y2="315.7" stroke="#cfe6ff" stroke-width="1" />
<line x1="393.9" y1="339.5" x2="393.9" y2="315.7" stroke="#cfe6ff" stroke-width="1" />
<line x1="403.2" y1="339.5" x2="403.2" y2="315.7" stroke="#cfe6ff" stroke-width="1" />
<line x1="412.6" y1="339.5" x2="412.6" y2="315.7" stroke="#cfe6ff" stroke-width="1" />
<line x1="422.0" y1="339.5" x2="422.0" y2="315.7" stroke="#cfe6ff" stroke-width="1" />
<line x1="431.4" y1="339.5" x2="431.4" y2="315.7" stroke="#cfe6ff" stroke-width="1" />
<line x1="440.7" y1="339.5" x2="440.7" y2="315.7" stroke="#cfe6ff" stroke-width="1" />
<line x1="450.1" y1="339.5" x2="450.1" y2="315.7" stroke="#cfe6ff" stroke-width="1" />
<line x1="459.5" y1="339.5" x2="459.5" y2="315.7" stroke="#cfe6ff" stroke-width="1" />
<line x1="468.8" y1="339.5" x2="468.8" y2="315.7" stroke="#cfe6ff" stroke-width="1" />
<line x1="478.2" y1="339.5" x2="478.2" y2="315.7" stroke="#cfe6ff" stroke-width="1" />
<line x1="487.6" y1="339.5" x2="487.6" y2="315.7" stroke="#cfe6ff" stroke-width="1" />
<line x1="497.0" y1="339.5" x2="497.0" y2="315.7" stroke="#cfe6ff" stroke-width="1" />
<line x1="506.3" y1="339.5" x2="506.3" y2="315.7" stroke="#cfe6ff" stroke-width="1" />
<line x1="515.7" y1="339.5" x2="515.7" y2="315.7" stroke="#cfe6ff" stroke-width="1" />
<rect x="156.0" y="320.3" width="963.6" height="14.5" stroke="#cfe6ff"/>
<line x1="281.4" y1="500.5" x2="281.4" y2="524.3" stroke="#cfe6ff" stroke-width="1" />
<line x1="290.8" y1="500.5" x2="290.8" y2="524.3" stroke="#cfe6ff" stroke-width="1" />
<line x1="300.1" y1="500.5" x2="300.1" y2="524.3" stroke="#cfe6ff" stroke-width="1" />
<line x1="309.5" y1="500.5" x2="309.5" y2="524.3" stroke="#cfe6ff" stroke-width="1" />
<line x1="318.9" y1="500.5" x2="318.9" y2="524.3" stroke="#cfe6ff" stroke-width="1" />
<line x1="328.3" y1="500.5" x2="328.3" y2="524.3" stroke="#cfe6ff" stroke-width="1" />
<line x1="337.6" y1="500.5" x2="337.6" y2="524.3" stroke="#cfe6ff" stroke-width="1" />
<line x1="347.0" y1="500.5" x2="347.0" y2="524.3" stroke="#cfe6ff" stroke-width="1" />
<line x1="356.4" y1="500.5" x2="356.4" y2="524.3" stroke="#cfe6ff" stroke-width="1" />
<line x1="365.7" y1="500.5" x2="365.7" y2="524.3" stroke="#cfe6ff" stroke-width="1" />
<line x1="375.1" y1="500.5" x2="375.1" y2="524.3" stroke="#cfe6ff" stroke-width="1" />
<line x1="384.5" y1="500.5" x2="384.5" y2="524.3" stroke="#cfe6ff" stroke-width="1" />
<line x1="393.9" y1="500.5" x2="393.9" y2="524.3" stroke="#cfe6ff" stroke-width="1" />
<line x1="403.2" y1="500.5" x2="403.2" y2="524.3" stroke="#cfe6ff" stroke-width="1" />
<line x1="412.6" y1="500.5" x2="412.6" y2="524.3" stroke="#cfe6ff" stroke-width="1" />
<line x1="422.0" y1="500.5" x2="422.0" y2="524.3" stroke="#cfe6ff" stroke-width="1" />
<line x1="431.4" y1="500.5" x2="431.4" y2="524.3" stroke="#cfe6ff" stroke-width="1" />
<line x1="440.7" y1="500.5" x2="440.7" y2="524.3" stroke="#cfe6ff" stroke-width="1" />
<line x1="450.1" y1="500.5" x2="450.1" y2="524.3" stroke="#cfe6ff" stroke-width="1" />
<line x1="459.5" y1="500.5" x2="459.5" y2="524.3" stroke="#cfe6ff" stroke-width="1" />
<line x1="468.8" y1="500.5" x2="468.8" y2="524.3" stroke="#cfe6ff" stroke-width="1" />
<line x1="478.2" y1="500.5" x2="478.2" y2="524.3" stroke="#cfe6ff" stroke-width="1" />
<line x1="487.6" y1="500.5" x2="487.6" y2="524.3" stroke="#cfe6ff" stroke-width="1" />
<line x1="497.0" y1="500.5" x2="497.0" y2="524.3" stroke="#cfe6ff" stroke-width="1" />
<line x1="506.3" y1="500.5" x2="506.3" y2="524.3" stroke="#cfe6ff" stroke-width="1" />
<line x1="515.7" y1="500.5" x2="515.7" y2="524.3" stroke="#cfe6ff" stroke-width="1" />
<rect x="156.0" y="505.1" width="963.6" height="14.5" stroke="#cfe6ff"/>
<rect x="174.1" y="450.4" width="16.5" height="31.7" stroke="#ffd08a"/>
<rect x="220.3" y="450.4" width="16.5" height="31.7" stroke="#ffd08a"/>
<rect x="266.5" y="450.4" width="16.5" height="31.7" stroke="#ffd08a"/>
<rect x="312.8" y="450.4" width="16.5" height="31.7" stroke="#ffd08a"/>
<rect x="358.9" y="450.4" width="16.5" height="31.7" stroke="#ffd08a"/>
<rect x="405.1" y="450.4" width="16.5" height="31.7" stroke="#ffd08a"/>
<rect x="451.3" y="450.4" width="16.5" height="31.7" stroke="#ffd08a"/>
<rect x="497.5" y="450.4" width="16.5" height="31.7" stroke="#ffd08a"/>
<rect x="543.8" y="450.4" width="16.5" height="31.7" stroke="#ffd08a"/>
<rect x="590.0" y="450.4" width="16.5" height="31.7" stroke="#ffd08a"/>
<rect x="636.1" y="450.4" width="16.5" height="31.7" stroke="#ffd08a"/>
<rect x="682.4" y="450.4" width="16.5" height="31.7" stroke="#ffd08a"/>
<rect x="728.5" y="450.4" width="16.5" height="31.7" stroke="#ffd08a"/>
<rect x="774.8" y="450.4" width="16.5" height="31.7" stroke="#ffd08a"/>
<rect x="820.9" y="450.4" width="16.5" height="31.7" stroke="#ffd08a"/>
<rect x="867.1" y="450.4" width="16.5" height="31.7" stroke="#ffd08a"/>
<rect x="913.3" y="450.4" width="16.5" height="31.7" stroke="#ffd08a"/>
<rect x="959.5" y="450.4" width="16.5" height="31.7" stroke="#ffd08a"/>
<rect x="1005.8" y="450.4" width="16.5" height="31.7" stroke="#ffd08a"/>
<rect x="1051.9" y="450.4" width="16.5" height="31.7" stroke="#ffd08a"/>
<rect x="1098.2" y="450.4" width="16.5" height="31.7" stroke="#ffd08a"/>
<rect x="174.1" y="358.0" width="16.5" height="31.7" stroke="#ffd08a"/>
<rect x="220.3" y="358.0" width="16.5" height="31.7" stroke="#ffd08a"/>
<rect x="266.5" y="358.0" width="16.5" height="31.7" stroke="#ffd08a"/>
<rect x="312.8" y="358.0" width="16.5" height="31.7" stroke="#ffd08a"/>
<rect x="358.9" y="358.0" width="16.5" height="31.7" stroke="#ffd08a"/>
<rect x="405.1" y="358.0" width="16.5" height="31.7" stroke="#ffd08a"/>
<rect x="451.3" y="358.0" width="16.5" height="31.7" stroke="#ffd08a"/>
<rect x="497.5" y="358.0" width="16.5" height="31.7" stroke="#ffd08a"/>
<rect x="543.8" y="358.0" width="16.5" height="31.7" stroke="#ffd08a"/>
<rect x="590.0" y="358.0" width="16.5" height="31.7" stroke="#ffd08a"/>
<rect x="636.1" y="358.0" width="16.5" height="31.7" stroke="#ffd08a"/>
<rect x="682.4" y="358.0" width="16.5" height="31.7" stroke="#ffd08a"/>
<rect x="728.5" y="358.0" width="16.5" height="31.7" stroke="#ffd08a"/>
<rect x="774.8" y="358.0" width="16.5" height="31.7" stroke="#ffd08a"/>
<rect x="820.9" y="358.0" width="16.5" height="31.7" stroke="#ffd08a"/>
<rect x="867.1" y="358.0" width="16.5" height="31.7" stroke="#ffd08a"/>
<rect x="913.3" y="358.0" width="16.5" height="31.7" stroke="#ffd08a"/>
<rect x="959.5" y="358.0" width="16.5" height="31.7" stroke="#ffd08a"/>
<rect x="1005.8" y="358.0" width="16.5" height="31.7" stroke="#ffd08a"/>
<rect x="1051.9" y="358.0" width="16.5" height="31.7" stroke="#ffd08a"/>
<rect x="1098.2" y="358.0" width="16.5" height="31.7" stroke="#ffd08a"/>
<rect x="537.1" y="313.7" width="29.7" height="212.5" stroke="#ffb070"/>
<rect x="695.5" y="318.5" width="29.7" height="203.0" stroke="#ffb070"/>
<rect x="853.9" y="323.2" width="29.7" height="193.5" stroke="#ffb070"/>
<rect x="999.1" y="327.6" width="29.7" height="184.8" stroke="#ffb070"/>
<rect x="1131.2" y="331.6" width="29.7" height="176.9" stroke="#ffb070"/>
<rect x="624.6" y="327.3" width="13.2" height="185.3" stroke="#d9a6ff"/>
<rect x="783.0" y="332.1" width="13.2" height="175.8" stroke="#d9a6ff"/>
<rect x="934.8" y="336.6" width="13.2" height="166.7" stroke="#d9a6ff"/>
<rect x="1073.4" y="340.8" width="13.2" height="158.4" stroke="#d9a6ff"/>
<line x1="1192.2" y1="390.5" x2="1294.5" y2="402.8" stroke="#d9a6ff" stroke-width="2.4" />
<line x1="1192.2" y1="360.6" x2="1294.5" y2="385.7" stroke="#d9a6ff" stroke-width="2.4" />
<line x1="1192.2" y1="390.1" x2="1294.5" y2="402.8" stroke="#d9a6ff" stroke-width="2.4" />
<line x1="1192.2" y1="449.5" x2="1294.5" y2="437.2" stroke="#d9a6ff" stroke-width="2.4" />
<line x1="1192.2" y1="479.4" x2="1294.5" y2="454.3" stroke="#d9a6ff" stroke-width="2.4" />
<line x1="1192.2" y1="449.9" x2="1294.5" y2="437.2" stroke="#d9a6ff" stroke-width="2.4" />
<line x1="1192.2" y1="486.0" x2="1192.2" y2="354.0" stroke="#cfe6ff" stroke-width="3" />
<line x1="1237.7" y1="450.4" x2="1237.7" y2="389.6" stroke="#d9a6ff" stroke-width="3" />
<line x1="90.0" y1="618.0" x2="1304.4" y2="618.0" stroke="#cfe6ff" stroke-width="1.2" />
<text x="697.2" y="638.0" fill="#cfe6ff" stroke="none" font-size="14" text-anchor="middle">184 m  (×1.65 in service = 304 m)</text>
<line x1="90.0" y1="420.0" x2="1344.0" y2="420.0" stroke="#7fb0e0" stroke-width="1" stroke-dasharray="20 6 4 6"/>
<circle cx="1450.0" cy="420.0" r="108.0" stroke="#cfe6ff"/>
<circle cx="1450.0" cy="420.0" r="50.4" stroke="#d9a6ff"/>
<circle cx="1504.0" cy="388.8" r="9.0" stroke="#d9a6ff"/>
<line x1="1504.0" y1="388.8" x2="1450.0" y2="357.6" stroke="#b98cff" stroke-width="1" stroke-dasharray="4 5"/>
<line x1="1504.0" y1="388.8" x2="1396.0" y2="451.2" stroke="#b98cff" stroke-width="1" stroke-dasharray="4 5"/>
<circle cx="1450.0" cy="357.6" r="9.0" stroke="#d9a6ff"/>
<line x1="1450.0" y1="357.6" x2="1396.0" y2="388.8" stroke="#b98cff" stroke-width="1" stroke-dasharray="4 5"/>
<line x1="1450.0" y1="357.6" x2="1450.0" y2="482.4" stroke="#b98cff" stroke-width="1" stroke-dasharray="4 5"/>
<circle cx="1396.0" cy="388.8" r="9.0" stroke="#d9a6ff"/>
<line x1="1396.0" y1="388.8" x2="1396.0" y2="451.2" stroke="#b98cff" stroke-width="1" stroke-dasharray="4 5"/>
<line x1="1396.0" y1="388.8" x2="1504.0" y2="451.2" stroke="#b98cff" stroke-width="1" stroke-dasharray="4 5"/>
<circle cx="1396.0" cy="451.2" r="9.0" stroke="#d9a6ff"/>
<line x1="1396.0" y1="451.2" x2="1450.0" y2="482.4" stroke="#b98cff" stroke-width="1" stroke-dasharray="4 5"/>
<line x1="1396.0" y1="451.2" x2="1504.0" y2="388.8" stroke="#b98cff" stroke-width="1" stroke-dasharray="4 5"/>
<circle cx="1450.0" cy="482.4" r="9.0" stroke="#d9a6ff"/>
<line x1="1450.0" y1="482.4" x2="1504.0" y2="451.2" stroke="#b98cff" stroke-width="1" stroke-dasharray="4 5"/>
<line x1="1450.0" y1="482.4" x2="1450.0" y2="357.6" stroke="#b98cff" stroke-width="1" stroke-dasharray="4 5"/>
<circle cx="1504.0" cy="451.2" r="9.0" stroke="#d9a6ff"/>
<line x1="1504.0" y1="451.2" x2="1504.0" y2="388.8" stroke="#b98cff" stroke-width="1" stroke-dasharray="4 5"/>
<line x1="1504.0" y1="451.2" x2="1396.0" y2="388.8" stroke="#b98cff" stroke-width="1" stroke-dasharray="4 5"/>
<line x1="1649.2" y1="660.0" x2="1649.2" y2="180.0" stroke="#7fb0e0" stroke-width="2" />
<circle cx="1630.0" cy="504.0" r="15.0" stroke="#ffd08a"/>
<circle cx="1630.0" cy="336.0" r="15.0" stroke="#ffd08a"/>
<line x1="1250.8" y1="660.0" x2="1250.8" y2="180.0" stroke="#7fb0e0" stroke-width="2" />
<circle cx="1270.0" cy="504.0" r="15.0" stroke="#ffd08a"/>
<circle cx="1270.0" cy="336.0" r="15.0" stroke="#ffd08a"/>
<rect x="1436.8" y="238.8" width="26.4" height="26.4" stroke="#cfe6ff"/>
<rect x="1436.8" y="574.8" width="26.4" height="26.4" stroke="#cfe6ff"/>
<text x="1450.0" y="640.0" fill="#e8f4ff" stroke="none" font-size="16" text-anchor="middle">SECTION G–G  (emitter crown, looking aft)</text>
<text x="1450.0" y="662.0" fill="#b98cff" stroke="none" font-size="13" text-anchor="middle">dashed: arc discharge paths between terminals</text>
<line x1="420.0" y1="340.8" x2="420.0" y2="748.0" stroke="#9fd0ff" stroke-width="1" />
<circle cx="420.0" cy="340.8" r="4.0" stroke="#9fd0ff"/>
<text x="428.0" y="760.0" fill="#e8f4ff" stroke="none" font-size="15" text-anchor="start">A  BREECH REACTOR CRADLE — 6 ribs, 2 collars, coolant loops</text>
<line x1="367.2" y1="525.6" x2="367.2" y2="788.0" stroke="#9fd0ff" stroke-width="1" />
<circle cx="367.2" cy="525.6" r="4.0" stroke="#9fd0ff"/>
<text x="375.2" y="800.0" fill="#e8f4ff" stroke="none" font-size="15" text-anchor="start">B  RADIATOR FIN BANKS ×2 — 26 fins each</text>
<line x1="288.0" y1="358.0" x2="288.0" y2="828.0" stroke="#9fd0ff" stroke-width="1" />
<circle cx="288.0" cy="358.0" r="4.0" stroke="#9fd0ff"/>
<text x="296.0" y="840.0" fill="#e8f4ff" stroke="none" font-size="15" text-anchor="start">C  CAPACITOR BANKS — 2 tiers × 21 cells per wall</text>
<line x1="882.0" y1="466.2" x2="882.0" y2="868.0" stroke="#9fd0ff" stroke-width="1" />
<circle cx="882.0" cy="466.2" r="4.0" stroke="#9fd0ff"/>
<text x="890.0" y="880.0" fill="#e8f4ff" stroke="none" font-size="15" text-anchor="start">D  COPPER BUS BARS + FEEDERS to every coil</text>
<line x1="789.6" y1="330.9" x2="789.6" y2="908.0" stroke="#9fd0ff" stroke-width="1" />
<circle cx="789.6" cy="330.9" r="4.0" stroke="#9fd0ff"/>
<text x="797.6" y="920.0" fill="#e8f4ff" stroke="none" font-size="15" text-anchor="start">E  FOCUSING COIL STACK — 5 wound rings + 4 field shapers</text>
<line x1="1132.8" y1="522.3" x2="1132.8" y2="948.0" stroke="#9fd0ff" stroke-width="1" />
<circle cx="1132.8" cy="522.3" r="4.0" stroke="#9fd0ff"/>
<text x="1140.8" y="960.0" fill="#e8f4ff" stroke="none" font-size="15" text-anchor="start">F  GUIDE RAILS, CLAMPS, STATUS LAMPS</text>
<line x1="1264.8" y1="373.8" x2="1264.8" y2="988.0" stroke="#9fd0ff" stroke-width="1" />
<circle cx="1264.8" cy="373.8" r="4.0" stroke="#9fd0ff"/>
<text x="1272.8" y="1000.0" fill="#e8f4ff" stroke="none" font-size="15" text-anchor="start">G  EMITTER CROWN — 6 electrode horns, arc terminals, focus lens</text>
<text x="90.0" y="60.0" fill="#ffffff" stroke="none" font-size="28" text-anchor="start">KHARAN-CLASS DREADNOUGHT — GRAVITY LANCE FIRING SYSTEM</text>
<text x="90.0" y="92.0" fill="#9fd0ff" stroke="none" font-size="15" text-anchor="start">SIDE ELEVATION (fork trench, prong walls removed)   ·   model space metres   ·   original design for VESTIGE</text>
<text x="1760.0" y="1070.0" fill="#7fb0e0" stroke="none" font-size="12" text-anchor="end">drawn by tools/make_dread_lance.py — the model is built from the same parameters</text>
</g></svg>